<svg width="30" height="30" viewBox="0 0 30 30" fill="none" xmlns="http://www.w3.org/2000/svg">
<path d="M15.0015 2.5C8.09522 2.5 2.50147 8.09375 2.50147 15C2.49996 17.6239 3.32471 20.1817 4.85873 22.3106C6.39274 24.4394 8.55813 26.0311 11.0477 26.86C11.6727 26.9688 11.9077 26.5937 11.9077 26.265C11.9077 25.9687 11.8915 24.985 11.8915 23.9375C8.75147 24.5162 7.93897 23.1725 7.68897 22.4688C7.54772 22.1088 6.93897 21 6.40772 20.7025C5.97022 20.4688 5.34522 19.89 6.39147 19.875C7.37647 19.8587 8.07897 20.7812 8.31397 21.1562C9.43897 23.0462 11.2352 22.515 11.954 22.1875C12.064 21.375 12.3915 20.8288 12.7515 20.5163C9.97022 20.2038 7.06397 19.125 7.06397 14.3438C7.06397 12.9838 7.54772 11.86 8.34522 10.9837C8.22022 10.6712 7.78272 9.39 8.47022 7.67125C8.47022 7.67125 9.51647 7.34375 11.9077 8.95375C12.9253 8.67133 13.9767 8.52918 15.0327 8.53125C16.0952 8.53125 17.1577 8.67125 18.1577 8.9525C20.549 7.3275 21.5952 7.6725 21.5952 7.6725C22.2827 9.39125 21.8452 10.6725 21.7202 10.985C22.5165 11.86 23.0015 12.9688 23.0015 14.3438C23.0015 19.1413 20.0802 20.2038 17.2977 20.5163C17.7515 20.9062 18.1427 21.6562 18.1427 22.8288C18.1427 24.5 18.1265 25.8438 18.1265 26.2663C18.1265 26.5938 18.3615 26.9837 18.9865 26.8587C21.4675 26.0208 23.6234 24.4259 25.1506 22.2987C26.6778 20.1714 27.4996 17.6187 27.5002 15C27.5002 8.09375 21.9065 2.5 15.0002 2.5H15.0015Z" fill="#F8F8F8"/>
</svg>
