<svg width="30" height="30" viewBox="0 0 30 30" fill="none" xmlns="http://www.w3.org/2000/svg">
<path d="M23.4127 6.7625L21.8127 8.0125L15.0002 13.075L8.18768 7.9625L6.58768 6.7125C6.21075 6.40068 5.75062 6.2063 5.26429 6.15343C4.77797 6.10057 4.28682 6.19155 3.85169 6.4151C3.41657 6.63865 3.05659 6.98495 2.81636 7.41109C2.57613 7.83723 2.46619 8.32449 2.50018 8.8125V23.3C2.50018 23.7509 2.67929 24.1833 2.9981 24.5021C3.31691 24.8209 3.74932 25 4.20018 25H8.18768V15.35L15.0002 20.4625L21.8127 15.35V25H25.8002C26.2511 25 26.6835 24.8209 27.0023 24.5021C27.3211 24.1833 27.5002 23.7509 27.5002 23.3V8.8125C27.5237 8.3287 27.4061 7.8485 27.1617 7.43028C26.9174 7.01205 26.5569 6.67381 26.1239 6.45666C25.6909 6.23952 25.2042 6.15282 24.7229 6.20712C24.2416 6.26141 23.7864 6.45436 23.4127 6.7625Z" fill="#F8F8F8"/>
</svg>
