<svg width="30" height="30" viewBox="0 0 30 30" fill="none" xmlns="http://www.w3.org/2000/svg">
<path d="M20 2.5H10C9.33696 2.5 8.70107 2.76339 8.23223 3.23223C7.76339 3.70107 7.5 4.33696 7.5 5V25C7.5 25.663 7.76339 26.2989 8.23223 26.7678C8.70107 27.2366 9.33696 27.5 10 27.5H20C20.663 27.5 21.2989 27.2366 21.7678 26.7678C22.2366 26.2989 22.5 25.663 22.5 25V5C22.5 4.33696 22.2366 3.70107 21.7678 3.23223C21.2989 2.76339 20.663 2.5 20 2.5ZM16.25 26.25H13.75V25H16.25V26.25ZM20 23.75H10V6.25H20V23.75Z" fill="#F8F8F8"/>
</svg>
