<svg width="24" height="24" viewBox="0 0 24 24" fill="none" xmlns="http://www.w3.org/2000/svg">
<path d="M19.7328 7.77093C19.4774 7.67254 19.2198 7.58138 18.9603 7.49756C19.0039 7.29756 19.044 7.09998 19.0796 6.90588C19.6644 3.7184 19.2821 1.15051 17.9763 0.305034C16.7242 -0.505492 14.6767 0.339666 12.6087 2.3604C12.4049 2.55991 12.2056 2.76517 12.0111 2.97598C11.8808 2.8358 11.7483 2.69834 11.6135 2.56367C9.44616 0.403034 7.27378 -0.507597 5.96934 0.340297C4.71844 1.15335 4.34803 3.56735 4.87453 6.58819C4.92691 6.88738 4.98606 7.18502 5.05191 7.48082C4.74441 7.57893 4.44769 7.68335 4.16372 7.79451C1.62272 8.78924 0 10.3481 0 11.965C0 13.635 1.74206 15.3101 4.38863 16.3258C4.60319 16.4078 4.81954 16.4838 5.03747 16.5537C4.96669 16.8723 4.90385 17.193 4.84903 17.5156C4.34709 20.484 4.73906 22.8409 5.98659 23.6488C7.27509 24.4831 9.43772 23.6257 11.5434 21.5588C11.7142 21.3908 11.8812 21.218 12.0443 21.0406C12.255 21.2689 12.4713 21.4905 12.693 21.7052C14.7328 23.676 16.7473 24.4718 17.9936 23.6617C19.2809 22.8249 19.6993 20.2929 19.1561 17.2124C19.1133 16.9711 19.0653 16.7309 19.0122 16.4922C19.1641 16.4417 19.3132 16.3897 19.4585 16.3356C22.2098 15.3121 24 13.6573 24 11.965C24 10.3422 22.3249 8.77282 19.7328 7.77093ZM19.1361 15.2429C19.0048 15.2917 18.8702 15.3387 18.7329 15.3845C18.4292 14.3048 18.0193 13.1568 17.5177 11.9706C17.9963 10.8127 18.3905 9.67935 18.6857 8.60672C18.9312 8.68651 19.1694 8.77061 19.3991 8.85935C21.6201 9.71788 22.9748 10.987 22.9748 11.965C22.9748 13.0067 21.5117 14.359 19.1361 15.2429ZM18.1504 17.436C18.3906 18.7981 18.4248 20.0297 18.2657 20.9925C18.1228 21.8577 17.8354 22.4344 17.4799 22.6655C16.7236 23.157 15.1061 22.5181 13.3617 20.8326C13.1555 20.633 12.9543 20.4269 12.7582 20.2147C13.4346 19.3843 14.1104 18.4189 14.77 17.3467C15.9303 17.2311 17.0264 17.0421 18.0204 16.7841C18.0683 17.0002 18.1116 17.2176 18.1504 17.436ZM8.18213 22.5805C7.44319 22.8735 6.85462 22.8819 6.49884 22.6516C5.74181 22.1614 5.42709 20.2688 5.85637 17.7303C5.9074 17.4303 5.96583 17.132 6.03159 16.8357C7.01466 17.0799 8.10281 17.2555 9.26578 17.3614C9.92991 18.4105 10.6252 19.3748 11.326 20.2192C11.1771 20.381 11.0247 20.5387 10.8688 20.6921C9.93759 21.606 9.0045 22.2544 8.18213 22.5805ZM4.72031 15.2365C3.55003 14.7874 2.58356 14.2037 1.92113 13.5667C1.32581 12.9944 1.02534 12.4261 1.02534 11.965C1.02534 10.9838 2.32819 9.73219 4.50122 8.88156C4.76494 8.7784 5.04094 8.68103 5.32734 8.58967C5.62772 9.68651 6.02166 10.8334 6.49706 11.993C6.01547 13.1699 5.61591 14.335 5.31262 15.4448C5.1137 15.3808 4.9162 15.3114 4.72031 15.2365ZM5.88075 6.36703C5.42972 3.77893 5.72925 1.82661 6.48309 1.33661C7.28597 0.814718 9.06141 1.55882 10.9327 3.42451C11.0548 3.54644 11.1748 3.67085 11.2928 3.79767C10.5955 4.6384 9.90656 5.59556 9.24834 6.63851C8.11959 6.75598 7.03912 6.94461 6.04575 7.19735C5.98455 6.92221 5.92953 6.64528 5.88075 6.36703ZM16.2333 9.23735C15.9986 8.78229 15.7553 8.33296 15.5034 7.88967C16.2692 7.9984 17.0029 8.14272 17.6918 8.31914C17.485 9.06356 17.2272 9.84177 16.9237 10.6397C16.7019 10.1671 16.4717 9.69958 16.2333 9.23735ZM12.0115 4.6204C12.4844 5.19567 12.958 5.83788 13.4239 6.53472C12.4789 6.48461 11.5323 6.4844 10.5873 6.53409C11.0536 5.84367 11.5312 5.2023 12.0115 4.6204ZM7.76269 9.24524C7.52722 9.70375 7.30131 10.1684 7.08516 10.6387C6.78666 9.84367 6.53119 9.06188 6.32259 8.30693C7.00734 8.13493 7.73756 7.9943 8.49844 7.88756C8.24376 8.33356 7.99844 8.78631 7.76269 9.24524ZM8.52028 16.1244C7.73419 16.0259 6.993 15.8925 6.30844 15.7251C6.52031 14.9567 6.78141 14.1583 7.08637 13.3462C7.30339 13.8169 7.53023 14.2818 7.76672 14.7405C8.00991 15.2121 8.26172 15.674 8.52028 16.1244ZM12.0398 19.3907C11.5538 18.8021 11.0692 18.1508 10.5958 17.4504C11.0554 17.4706 11.5238 17.4809 12 17.4809C12.4892 17.4809 12.9728 17.4686 13.4487 17.4448C12.9814 18.1579 12.5095 18.8101 12.0398 19.3907ZM16.9334 13.3047C17.2542 14.1258 17.5246 14.92 17.7393 15.6752C17.0435 15.8536 16.2922 15.9971 15.5005 16.1038C15.7542 15.6522 15.9998 15.1951 16.2373 14.7326C16.4788 14.2625 16.7108 13.7864 16.9334 13.3047ZM15.3492 14.1575C14.9857 14.8665 14.6017 15.5622 14.1979 16.2432C13.4664 16.3014 12.7333 16.3303 12 16.3299C11.2531 16.3299 10.5266 16.3038 9.82706 16.2528C9.41271 15.5733 9.0214 14.8765 8.65397 14.1638C8.28827 13.4548 7.94677 12.7306 7.63003 11.9925C7.94597 11.2543 8.28652 10.5297 8.65097 9.82019L8.65088 9.8203C9.01519 9.11064 9.40337 8.41677 9.81459 7.74019C10.5283 7.67956 11.2602 7.64798 11.9999 7.64798C12.743 7.64798 13.4759 7.67988 14.1894 7.74093C14.5965 8.41649 14.9822 9.10798 15.3458 9.81409C15.7115 10.522 16.0566 11.2431 16.3805 11.9762C16.0599 12.7168 15.7159 13.4443 15.3492 14.1575ZM17.4642 1.3023C18.2678 1.82272 18.5804 3.92135 18.0755 6.67346C18.0432 6.84903 18.007 7.02788 17.9677 7.20924C16.9718 6.95114 15.8906 6.75924 14.7586 6.63998C14.0992 5.58556 13.4158 4.62693 12.7298 3.79703C12.9096 3.60246 13.0937 3.41292 13.2818 3.22861C15.0537 1.49735 16.7097 0.813771 17.4642 1.3023ZM12 9.55872C13.1836 9.55872 14.1431 10.6361 14.1431 11.965C14.1431 13.294 13.1836 14.3714 12 14.3714C10.8164 14.3714 9.85687 13.294 9.85687 11.965C9.85687 10.6361 10.8164 9.55872 12 9.55872Z" fill="#00D8FF"/>
</svg>
