<svg width="24" height="24" viewBox="0 0 24 24" fill="none" xmlns="http://www.w3.org/2000/svg">
<g clip-path="url(#clip0_244_263)">
<path d="M14.8106 14.8682L14.3503 15.758C14.2821 15.8897 14.184 15.999 14.0658 16.0751C13.9476 16.1511 13.8135 16.1911 13.677 16.1911H10.1503C10.0138 16.1911 9.87964 16.1511 9.76144 16.0751C9.64323 15.999 9.54512 15.8897 9.47697 15.758L9.01656 14.8682H14.8106ZM16.0994 12.3774L15.2877 13.9462H8.53956L7.72787 12.3774H16.0994ZM15.3175 9.94174L16.1007 11.4554H7.72656L8.50975 9.94174H15.3175ZM13.6769 7.6392C13.8134 7.63917 13.9476 7.6792 14.0658 7.75524C14.184 7.83128 14.2821 7.94066 14.3503 8.07235L14.8404 9.01972H8.98684L9.47706 8.07235C9.54521 7.94067 9.64333 7.83131 9.76153 7.75527C9.87973 7.67923 10.0138 7.63919 10.1504 7.6392H13.677H13.6769Z" fill="#00435B"/>
<path d="M5.01779 7.22608C4.62713 5.11762 4.54322 3.50044 4.79579 2.32622C4.94597 1.62782 5.22047 1.05808 5.63804 0.646947C6.07885 0.212964 6.6361 -9.81487e-06 7.26235 -9.81487e-06C8.29529 -9.81487e-06 9.38129 0.524338 10.5417 1.52034C11.0152 1.92667 11.5064 2.41637 12.0166 2.98976C12.0573 2.93164 12.1031 2.87676 12.1543 2.82594C13.5968 1.39533 14.8112 0.506286 15.8499 0.163608C16.4676 -0.0402881 17.0474 -0.0596968 17.5754 0.138147C18.1328 0.346842 18.5769 0.778529 18.8903 1.38302C19.4075 2.38069 19.5438 3.69161 19.351 5.31036C19.2725 5.97015 19.1381 6.68879 18.9483 7.46754C19.0199 7.47714 19.0917 7.49488 19.1628 7.52107C20.9929 8.1962 22.2889 8.92204 23.0735 9.75171C23.5403 10.2453 23.8451 10.7948 23.9554 11.4031C24.0716 12.0452 23.9582 12.6891 23.6453 13.2932C23.1291 14.2895 22.1799 15.0751 20.8279 15.6975C20.2851 15.9474 19.6707 16.1737 18.9844 16.3773C19.0157 16.456 19.0401 16.5395 19.0563 16.6272C19.4469 18.7356 19.5308 20.3528 19.2783 21.5271C19.1281 22.2255 18.8535 22.7952 18.4359 23.2063C17.9952 23.6403 17.4379 23.8533 16.8117 23.8533C15.7787 23.8533 14.6928 23.3289 13.5323 22.3329C13.0538 21.9222 12.5572 21.4265 12.0411 20.8451C11.9867 20.9396 11.921 21.0254 11.8457 21.1C10.4033 22.5308 9.18882 23.4196 8.15007 23.7624C7.53244 23.9663 6.9526 23.9857 6.4246 23.7878C5.86716 23.5792 5.42307 23.1475 5.10966 22.543C4.59254 21.5453 4.45622 20.2344 4.64897 18.6156C4.73044 17.9321 4.87172 17.1851 5.07254 16.3737C4.99249 16.3647 4.91358 16.3459 4.83722 16.3177C3.00713 15.6426 1.71113 14.9167 0.926536 14.0871C0.459661 13.5935 0.154879 13.044 0.0446294 12.4356C-0.0716206 11.7936 0.0418169 11.1496 0.354754 10.5455C0.870942 9.54928 1.82007 8.76354 3.17213 8.14131C3.73116 7.88389 4.36594 7.65161 5.07713 7.44333C5.05138 7.3731 5.03152 7.30037 5.01779 7.22608Z" fill="#002B3B"/>
<path d="M17.7793 16.8348C17.8666 16.8175 17.9566 16.8384 18.0305 16.893C18.1044 16.9475 18.1566 17.0317 18.1763 17.128L18.1785 17.1397L18.1979 17.2518C18.8269 20.9328 18.3838 22.7734 16.8685 22.7734C15.386 22.7734 13.4987 21.2029 11.2067 18.0618C11.166 18.0059 11.1402 17.9385 11.1322 17.8672C11.1242 17.7958 11.1343 17.7234 11.1614 17.6581C11.1885 17.5929 11.2315 17.5374 11.2856 17.498C11.3396 17.4585 11.4025 17.4368 11.4671 17.4352H11.4778L11.5985 17.4361C12.563 17.4419 13.5006 17.4045 14.4114 17.3238C15.4864 17.2286 16.6091 17.0656 17.7793 16.8348ZM7.37293 14.0522L7.37874 14.0632L7.4393 14.1808C7.92465 15.1199 8.43024 16.0112 8.95618 16.8549C9.57568 17.8483 10.2722 18.854 11.0459 19.872C11.1033 19.9476 11.1323 20.0448 11.1269 20.1436C11.1215 20.2424 11.0821 20.3351 11.0169 20.4023L11.0082 20.411L10.9304 20.4856C8.37034 22.927 6.70646 23.4144 5.93874 21.9477C5.18715 20.5122 5.45968 17.9018 6.75615 14.1167C6.7791 14.0496 6.81847 13.9911 6.86979 13.9476C6.9211 13.9042 6.98232 13.8776 7.04652 13.8709C7.11071 13.8642 7.1753 13.8776 7.23299 13.9097C7.29068 13.9417 7.33916 13.9911 7.37293 14.0522ZM19.0783 8.62049L19.0888 8.62435L19.1852 8.66129C22.345 9.88477 23.5455 11.2293 22.7867 12.6949C22.0445 14.1282 19.887 15.1719 16.3141 15.8257C16.2493 15.8376 16.1829 15.8287 16.1225 15.8C16.0621 15.7713 16.0104 15.7241 15.9732 15.6639C15.9361 15.6036 15.9152 15.5329 15.9129 15.4599C15.9106 15.3869 15.9271 15.3147 15.9603 15.2517C16.472 14.2827 16.933 13.3188 17.3431 12.3595C17.8081 11.2717 18.2445 10.1039 18.6523 8.85652C18.6819 8.76586 18.7411 8.6909 18.818 8.64654C18.895 8.60218 18.9842 8.59165 19.0678 8.61705L19.0783 8.62049ZM7.91668 8.00452C7.95579 8.03009 7.98999 8.06398 8.01732 8.10426C8.04466 8.14453 8.0646 8.19041 8.07601 8.23927C8.08741 8.28813 8.09006 8.339 8.08379 8.389C8.07753 8.43899 8.06247 8.48713 8.03949 8.53065C7.52762 9.49952 7.06674 10.4636 6.65668 11.4229C6.19168 12.5107 5.75527 13.6783 5.34746 14.9258C5.31718 15.0184 5.25609 15.0946 5.17681 15.1385C5.09753 15.1824 5.00612 15.1908 4.92146 15.1618L4.91096 15.158L4.81459 15.1209C1.65474 13.8976 0.454274 12.5529 1.21309 11.0875C1.95521 9.65405 4.11277 8.61047 7.68568 7.95663C7.76537 7.94202 7.84712 7.95892 7.91668 8.00452ZM18.061 1.97865C18.8126 3.41426 18.5401 6.02463 17.2436 9.80974C17.2206 9.8768 17.1813 9.93537 17.13 9.97881C17.0786 10.0223 17.0174 10.0488 16.9532 10.0555C16.889 10.0623 16.8244 10.0488 16.7667 10.0168C16.7091 9.98474 16.6606 9.93536 16.6268 9.87423L16.621 9.86327L16.5604 9.74567C16.0751 8.80654 15.5695 7.9152 15.0436 7.07155C14.4241 6.07816 13.7275 5.07245 12.9539 4.05444C12.8964 3.97889 12.8674 3.8816 12.8728 3.78282C12.8782 3.68405 12.9176 3.59139 12.9828 3.52414L12.9916 3.51548L13.0694 3.44087C15.6294 0.999445 17.2933 0.512037 18.061 1.97865ZM7.26081 1.10505C8.74337 1.10505 10.6306 2.67548 12.9226 5.81656C12.9633 5.87239 12.9891 5.93981 12.9971 6.01116C13.0051 6.08251 12.995 6.15494 12.9679 6.2202C12.9408 6.28547 12.8978 6.34096 12.8437 6.38038C12.7897 6.41979 12.7268 6.44154 12.6622 6.44317H12.6515L12.5308 6.44233C11.5664 6.43649 10.6287 6.47395 9.71799 6.55461C8.64287 6.64988 7.52021 6.81287 6.35002 7.04369C6.26269 7.06089 6.17276 7.04003 6.09886 6.98545C6.02497 6.93086 5.97277 6.84672 5.95309 6.75047L5.95084 6.73868L5.93143 6.62661C5.30237 2.94553 5.74543 1.10505 7.26081 1.10505Z" fill="#FF4154"/>
<path d="M13.0806 11.071C12.8573 10.6392 12.4417 10.3699 11.9887 10.3699H11.8398C11.6175 10.3699 11.3995 10.4351 11.2078 10.5585C11.0161 10.6818 10.8577 10.8588 10.7479 11.071L10.6702 11.2212L10.6702 11.2212C10.5609 11.4327 10.5035 11.672 10.5035 11.9153C10.5035 12.1586 10.5609 12.3979 10.6702 12.6093L10.6702 12.6093L10.7479 12.7596C10.8577 12.9718 11.0161 13.1487 11.2078 13.2721C11.3995 13.3955 11.6175 13.4607 11.8398 13.4607H11.9887C12.211 13.4607 12.429 13.3955 12.6207 13.2721C12.8124 13.1487 12.9708 12.9718 13.0805 12.7596L13.1583 12.6093L13.1583 12.6093C13.2676 12.3979 13.325 12.1586 13.325 11.9153C13.325 11.672 13.2676 11.4327 13.1583 11.2212L13.1583 11.2212L13.0806 11.071ZM13.0806 11.071L13.0361 11.0939L13.0805 11.071L13.0806 11.071ZM11.9144 11.3671H11.9144C11.8299 11.3671 11.7464 11.3918 11.6725 11.4393L11.9144 11.3671ZM11.9144 11.3671C11.9989 11.3671 12.0823 11.3919 12.1562 11.4393C12.2302 11.4868 12.2923 11.5556 12.3357 11.6392L11.9144 11.3671ZM11.4041 11.5932L11.4041 11.5932C11.4552 11.4949 11.5289 11.4126 11.6185 11.3551C11.708 11.2976 11.8101 11.2671 11.9144 11.2671L11.4041 11.5932ZM11.4041 11.5932C11.3531 11.6914 11.3264 11.8025 11.3264 11.9153C11.3264 12.0281 11.3531 12.1392 11.4041 12.2374C11.4551 12.3357 11.5288 12.418 11.6183 12.4755C11.7079 12.533 11.81 12.5636 11.9143 12.5636C12.0186 12.5636 12.1206 12.533 12.2102 12.4755C12.2997 12.418 12.3734 12.3357 12.4245 12.2374C12.4754 12.1392 12.5021 12.0281 12.5021 11.9153C12.5021 11.8025 12.4754 11.6914 12.4245 11.5932L12.4244 11.5932M11.4041 11.5932L12.4244 11.5932M12.4244 11.5932C12.3734 11.4949 12.2997 11.4127 12.2103 11.3552M12.4244 11.5932L12.2103 11.3552M12.3801 12.2143L12.3357 12.1913C12.3791 12.1077 12.4021 12.0125 12.4021 11.9153L12.3801 12.2143ZM12.3801 12.2143L12.3357 12.1913C12.2923 12.275 12.2302 12.3438 12.1562 12.3913C12.0822 12.4388 11.9988 12.4636 11.9143 12.4636C11.8297 12.4636 11.7463 12.4388 11.6724 12.3913C11.5984 12.3438 11.5363 12.275 11.4929 12.1913C11.4495 12.1077 11.4264 12.0125 11.4264 11.9153C11.4264 11.8181 11.4495 11.7229 11.4929 11.6393L12.3801 12.2143ZM12.2103 11.3552C12.1207 11.2977 12.0187 11.2671 11.9144 11.2671L12.2103 11.3552ZM14.3981 8.38587L14.3981 8.38587L15.8845 11.2686C15.9859 11.4651 16.0393 11.6881 16.0393 11.9153C16.0393 12.1425 15.9859 12.3654 15.8845 12.562L14.3981 15.4447C14.2961 15.6427 14.1492 15.8065 13.9729 15.9201C13.7967 16.0337 13.5971 16.0932 13.3944 16.0932H10.4341C10.0218 16.0932 9.63811 15.8477 9.43023 15.4447L7.94402 12.562C7.85013 12.3799 7.79733 12.1751 7.79008 11.9653H8.5217V11.9153V11.8653H7.79008C7.79733 11.6555 7.85013 11.4507 7.94402 11.2686L9.43033 8.38587C9.53242 8.18788 9.67929 8.02405 9.85559 7.91042C10.0318 7.79683 10.2313 7.7373 10.4341 7.73731L13.3944 7.73731C13.5971 7.73729 13.7967 7.79683 13.9729 7.91042C14.1492 8.02405 14.2961 8.18787 14.3981 8.38587ZM14.0362 14.6198L14.0362 14.6198L15.0727 12.6071C15.1813 12.3962 15.2383 12.1577 15.2383 11.9153C15.2383 11.6728 15.1813 11.4343 15.0727 11.2234L14.0362 9.21075C13.8132 8.77766 13.3969 8.50736 12.9431 8.50736L10.8852 8.50746C10.6625 8.50747 10.4442 8.57293 10.2522 8.69671C10.0604 8.82044 9.90189 8.99794 9.79228 9.21074L9.79228 9.21074L8.75578 11.2234L8.80023 11.2463L8.75578 11.2234C8.64718 11.4343 8.59019 11.6728 8.59019 11.9153C8.59019 12.1577 8.64718 12.3962 8.75578 12.6071L9.79228 14.6198C10.0153 15.0529 10.4316 15.3231 10.8853 15.3231H12.9431C13.1658 15.3231 13.3842 15.2576 13.5762 15.1339C13.7681 15.0101 13.9266 14.8326 14.0362 14.6198ZM13.9473 9.25652L13.9917 9.23364L13.9473 9.25653L14.9838 11.2692C15.0849 11.4656 15.1383 11.6883 15.1383 11.9153C15.1383 12.1422 15.0849 12.365 14.9838 12.5614L13.9473 14.574C13.8452 14.7721 13.6983 14.9361 13.522 15.0498C13.3457 15.1635 13.146 15.2231 12.9431 15.2231H10.8853C10.4728 15.2231 10.0889 14.9774 9.88118 14.574L9.83673 14.5969L9.88118 14.574L8.84468 12.5614C8.74356 12.365 8.69019 12.1422 8.69019 11.9153C8.69019 11.6883 8.74356 11.4656 8.84468 11.2692L9.88118 9.25653C9.88118 9.25653 9.88118 9.25653 9.88118 9.25653C9.98323 9.05841 10.1301 8.89446 10.3064 8.78075C10.4827 8.66706 10.6824 8.60747 10.8852 8.60746L12.9431 8.60736C13.3556 8.60736 13.7396 8.85316 13.9473 9.25652ZM10.368 10.2071L10.368 10.2071C10.4701 10.0092 10.617 9.84552 10.7932 9.73199C10.9694 9.61849 11.1689 9.559 11.3716 9.55901H12.4569C12.6596 9.559 12.8591 9.61839 13.0352 9.73188C13.2115 9.84542 13.3583 10.0091 13.4605 10.207L13.5049 10.184L13.4605 10.207L14.0081 11.268C14.1097 11.4646 14.1633 11.6878 14.1633 11.9153C14.1633 12.1427 14.1097 12.3659 14.0081 12.5626L14.0526 12.5855L14.0081 12.5626L13.4605 13.6236L13.5049 13.6465L13.4605 13.6236C13.2526 14.0263 12.869 14.2716 12.4569 14.2716H11.3716C11.1689 14.2716 10.9694 14.2122 10.7932 14.0987C10.617 13.9851 10.4701 13.8214 10.368 13.6236L10.3236 13.6465L10.368 13.6236L9.82032 12.5626C9.71879 12.3659 9.6652 12.1427 9.6652 11.9153C9.6652 11.6878 9.71879 11.4646 9.82032 11.268L10.368 10.2071ZM12.9917 11.1169L12.9917 11.1169L13.0694 11.2672C13.0694 11.2672 13.0694 11.2672 13.0694 11.2672C13.1712 11.464 13.225 11.6875 13.225 11.9153C13.225 12.143 13.1712 12.3665 13.0694 12.5634C13.0694 12.5634 13.0694 12.5634 13.0694 12.5634L12.9917 12.7136C12.8895 12.9112 12.7427 13.0746 12.5666 13.188C12.3905 13.3013 12.1912 13.3607 11.9887 13.3607H11.8398C11.6373 13.3607 11.438 13.3013 11.2619 13.188C11.0857 13.0746 10.9389 12.9112 10.8367 12.7136L10.759 12.5634C10.759 12.5634 10.759 12.5634 10.759 12.5634C10.6572 12.3665 10.6035 12.143 10.6035 11.9153C10.6035 11.6875 10.6572 11.464 10.759 11.2672L10.8367 11.1169C10.9389 10.9193 11.0857 10.7559 11.2619 10.6426C11.438 10.5292 11.6373 10.4699 11.8398 10.4699H11.9887C12.4004 10.4699 12.7838 10.7148 12.9917 11.1169ZM12.4569 9.45901H11.3716C11.1491 9.459 10.9309 9.52434 10.7391 9.64792C10.5473 9.77146 10.3888 9.94869 10.2791 10.1612C10.2791 10.1612 10.2791 10.1612 10.2791 10.1612L9.73146 11.2221C9.62242 11.4333 9.5652 11.6723 9.5652 11.9153C9.5652 12.1582 9.62242 12.3972 9.73146 12.6084L10.2791 13.6694C10.3888 13.882 10.5473 14.0592 10.7391 14.1827C10.9309 14.3063 11.1491 14.3716 11.3716 14.3716H12.4569C12.9102 14.3716 13.3261 14.1019 13.5493 13.6694L14.097 12.6084C14.206 12.3972 14.2633 12.1582 14.2633 11.9153C14.2633 11.6723 14.206 11.4333 14.097 11.2221L13.5493 10.1611C13.4396 9.94858 13.2812 9.77135 13.0894 9.64782C12.8975 9.52423 12.6793 9.459 12.4569 9.45901Z" fill="#FFD94C" stroke="black" stroke-width="0.1"/>
</g>
<defs>
<clipPath id="clip0_244_263">
<rect width="24" height="24" fill="white"/>
</clipPath>
</defs>
</svg>
