<svg width="24" height="24" viewBox="0 0 24 24" fill="none" xmlns="http://www.w3.org/2000/svg">
<g clip-path="url(#clip0_244_248)">
<path d="M0 0H24V24H0V0Z" fill="url(#paint0_linear_244_248)"/>
<path d="M18.2507 12.8677L18.3659 12.0566C19.4281 12.6929 19.442 12.9557 19.4417 12.9629C19.4398 12.9644 19.2587 13.1156 18.2507 12.8677ZM17.6677 12.7057C15.8317 12.1502 13.2749 10.9772 12.2402 10.4882C12.2402 10.484 12.2414 10.4801 12.2414 10.4759C12.2414 10.0784 11.918 9.75496 11.5202 9.75496C11.123 9.75496 10.7995 10.0784 10.7995 10.4759C10.7995 10.8734 11.123 11.1968 11.5202 11.1968C11.6947 11.1968 11.8532 11.1317 11.9782 11.0281C13.1957 11.6045 15.7327 12.7604 17.5822 13.3064L16.8509 18.4682C16.8487 18.4822 16.8479 18.4963 16.8479 18.5105C16.8479 18.965 14.8357 19.7999 11.548 19.7999C8.22553 19.7999 6.19209 18.965 6.19209 18.5105C6.19211 18.4968 6.19124 18.4832 6.18947 18.4697L4.66134 7.30762C5.98396 8.21812 8.8289 8.69981 11.5499 8.69981C14.2667 8.69981 17.1067 8.21981 18.4321 7.31212L17.6677 12.7057ZM4.4999 6.14325C4.52147 5.74856 6.79003 4.19981 11.5499 4.19981C16.309 4.19981 18.578 5.74818 18.5999 6.14325V6.27796C18.3389 7.16324 15.3989 8.0999 11.5499 8.0999C7.69425 8.0999 4.75275 7.16025 4.4999 6.27375V6.14325ZM19.1999 6.14981C19.1999 5.1104 16.2196 3.59981 11.5499 3.59981C6.88003 3.59981 3.8999 5.1104 3.8999 6.14981L3.92803 6.37612L5.59246 18.5332C5.6324 19.8929 9.25809 20.3998 11.548 20.3998C14.3896 20.3998 17.4085 19.7465 17.4475 18.5342L18.1664 13.4651C18.5662 13.5607 18.8954 13.6097 19.1597 13.6097C19.5145 13.6097 19.7545 13.523 19.9 13.3496C20.0195 13.2074 20.065 13.0352 20.0309 12.8518C19.9531 12.4367 19.4602 11.9891 18.4565 11.4164L19.1692 6.38775L19.1999 6.14981Z" fill="white"/>
</g>
<defs>
<linearGradient id="paint0_linear_244_248" x1="0" y1="2400" x2="2400" y2="0" gradientUnits="userSpaceOnUse">
<stop stop-color="#1B660F"/>
<stop offset="1" stop-color="#6CAE3E"/>
</linearGradient>
<clipPath id="clip0_244_248">
<rect width="24" height="24" fill="white"/>
</clipPath>
</defs>
</svg>
