<svg width="24" height="24" viewBox="0 0 24 24" fill="none" xmlns="http://www.w3.org/2000/svg">
<g clip-path="url(#clip0_244_272)">
<path d="M18.375 0H5.625C2.5184 0 0 2.5184 0 5.625V18.375C0 21.4816 2.5184 24 5.625 24H18.375C21.4816 24 24 21.4816 24 18.375V5.625C24 2.5184 21.4816 0 18.375 0Z" fill="url(#paint0_linear_244_272)"/>
<path d="M1.07677 12.1012L5.79277 14.0122V15.3499L0.209961 12.7632V11.9783L1.07677 12.1012ZM5.79277 10.5315L1.08362 12.4697L0.210055 12.5653V11.7736L5.79268 9.19378L5.79277 10.5315ZM22.6284 12.3742L17.7759 10.4837V9.18009L23.6043 11.7599V12.5585L22.6284 12.3742ZM17.7759 14.0394L22.6421 12.108L23.6043 11.9647V12.7564L17.7759 15.343V14.0394Z" fill="white"/>
<path fill-rule="evenodd" clip-rule="evenodd" d="M16.5074 5.72803C16.4804 6.15609 16.2875 6.60309 16.3412 7.01925C16.6781 7.61494 17.4195 7.70991 18.0311 7.75078C18.4548 7.82653 18.4495 7.54594 18.4211 7.23075L18.4262 5.71913C17.7866 5.72147 17.1467 5.71284 16.5074 5.72803ZM11.4635 6.92522C10.4221 7.10203 9.36652 7.59966 8.50018 8.19872C7.80287 8.74144 9.09877 9.26738 9.56893 9.35531C10.5149 9.36684 11.3538 8.72878 11.9752 8.06653C12.1781 7.78809 12.4315 7.36181 12.1766 7.03903C11.982 6.87028 11.6989 6.91116 11.4635 6.92522ZM13.6795 8.43975C12.8233 8.60288 12.0086 8.95575 11.2877 9.44709C10.7593 9.61303 10.3237 10.1933 10.9786 10.484C11.6662 11.0319 12.4632 10.8977 13.0965 10.5277C13.6764 10.183 14.3028 9.75769 14.5711 9.10875C14.8246 8.39784 14.1707 8.3715 13.6795 8.43975ZM16.1085 11.1944C15.949 11.8604 15.2783 12.1632 14.9215 12.6909C14.6297 13.0759 14.7648 13.5293 15.097 13.8323C15.2587 14.1677 15.5422 14.3551 15.8462 14.0638C16.6292 13.5315 16.8458 12.4946 16.8133 11.5962C16.8711 11.2252 16.4454 11.5606 16.1085 11.1944ZM13.1288 12.4453C12.089 12.6232 11.0491 13.1299 10.1823 13.728C9.50949 14.27 10.7767 14.776 11.2507 14.8563C12.2142 14.8577 13.0736 14.2368 13.6828 13.5316C13.8946 13.2516 14.1514 12.7077 13.7319 12.4851C13.5443 12.4056 13.3265 12.4289 13.1288 12.4453Z" fill="#B956A6"/>
<path fill-rule="evenodd" clip-rule="evenodd" d="M8.50004 8.19872C7.70035 8.51869 6.92898 8.90719 6.16716 9.31406C6.0256 9.84047 6.13913 10.4923 6.10248 11.0695C6.09966 13.4429 6.10098 15.8164 6.1006 18.1898H7.86498C8.22123 17.8543 8.66748 17.6088 9.05448 17.3042C10.5445 16.2355 12.0341 15.1628 13.5222 14.0971C13.6317 14.1463 13.5616 13.4529 13.3214 13.9345C12.7523 14.4701 11.9968 14.9107 11.1972 14.8676C10.7435 14.7184 10.012 14.4652 10.0074 13.9091C10.3269 13.5331 9.41813 14.106 9.16951 14.188C8.36119 14.5762 7.57201 15.0096 6.76201 15.3905C6.95663 15.1814 7.32076 14.9865 7.57894 14.7791C9.42329 13.4552 11.2672 12.1261 13.1159 10.8032C13.4715 10.5535 13.815 10.2812 14.1816 10.0478C14.215 10.1771 14.2779 9.42975 14.0052 9.88988C13.4495 10.4408 12.6999 10.8508 11.9093 10.8564C11.4646 10.7214 10.5175 10.3987 10.7284 9.82453C10.8312 9.62306 9.77326 10.254 10.2407 9.89822C10.7382 9.53466 11.2397 9.17756 11.7411 8.81775C11.9943 8.79872 11.9404 7.85813 11.5963 8.46488C11.0184 8.97272 10.259 9.43734 9.46294 9.32719C9.01576 9.19847 8.47923 8.94919 8.31666 8.48156C8.26285 8.36925 8.61779 8.19422 8.50004 8.19872ZM11.8131 8.77931C11.7687 8.90616 11.8934 8.733 11.8131 8.77931V8.77931Z" fill="#FCCC44"/>
<path fill-rule="evenodd" clip-rule="evenodd" d="M16.8656 7.57031C16.616 8.76244 16.3431 10.0102 16.1084 11.1944C16.7826 12.0442 16.848 10.6576 16.9659 10.2655C17.1565 9.44606 17.3823 8.82731 17.4062 7.97887C17.4568 7.68928 17.1165 7.51397 16.8656 7.57031ZM17.6391 8.50519C17.6181 8.62734 17.6699 8.52816 17.6391 8.50519V8.50519ZM16.8526 11.1784C16.885 11.1084 16.885 11.2482 16.8526 11.1784V11.1784Z" fill="#62777F"/>
<path fill-rule="evenodd" clip-rule="evenodd" d="M17.3076 7.70531C17.518 8.88675 16.8212 10.3221 16.5933 11.436C17.1108 11.0552 17.5106 9.32738 17.6128 8.65106C17.6391 8.57372 17.6716 8.37909 17.6786 8.37206C17.7111 8.20791 18.0142 7.92975 18.0308 7.75078C18.2073 7.62628 17.1636 7.60631 17.3076 7.70531ZM16.8785 11.1784C16.846 11.1084 16.846 11.2482 16.8785 11.1784V11.1784Z" fill="#4E5E67"/>
<path fill-rule="evenodd" clip-rule="evenodd" d="M8.51766 8.21841C8.22591 8.51053 8.33541 8.43919 8.55254 8.19628L8.51766 8.21841ZM11.6733 8.36306C11.3353 8.87091 10.1166 9.29559 9.9631 9.3285C10.6962 9.19116 11.3796 8.73506 11.8604 8.20087C11.784 8.23491 11.7386 8.31488 11.6733 8.36306ZM8.31723 8.52797C8.49938 8.96597 9.16173 9.25697 9.48357 9.32484C9.04416 9.18328 8.52695 8.93222 8.31723 8.52797ZM11.7869 8.78128C11.6949 8.88984 11.3674 9.05222 11.1947 9.21159C10.8243 9.48478 10.4411 9.73866 10.0749 10.0187C10.3081 10.0087 10.9914 9.49828 10.6411 10.0162C10.9379 10.527 11.5841 10.8822 12.1734 10.8498C12.9515 10.7276 13.669 10.2974 14.1849 9.69909C13.5587 10.3187 12.7309 10.9018 11.8149 10.8215C11.3715 10.7191 10.1601 10.0933 10.9704 9.65466C11.2562 9.41963 11.7489 9.29653 11.8046 8.88347C11.7929 8.83191 11.889 8.78156 11.7869 8.78128ZM9.56888 9.35531C9.86373 9.31688 9.86373 9.39384 9.56888 9.35531V9.35531ZM14.1629 10.0608C12.993 10.8758 11.8401 11.7228 10.6803 12.5525C9.36591 13.4932 8.05716 14.4373 6.74316 15.3773C7.23723 15.2107 7.73223 14.8853 8.22301 14.6606C8.89894 14.3031 9.61163 14.0206 10.2441 13.5862C11.4945 12.8501 12.8169 12.1488 13.7787 11.0226C13.9886 10.7764 14.1991 10.3801 14.2085 10.1136C14.1782 10.1221 14.2012 10.007 14.1629 10.0608ZM10.1823 13.728C9.97182 13.9658 9.88632 14.1358 10.1048 13.8334C10.1009 13.8684 10.282 13.6456 10.1823 13.728ZM13.3844 13.8418C12.83 14.4264 12.0099 14.8481 11.2405 14.8765C12.13 14.883 12.9325 14.355 13.5352 13.7321C13.4956 13.6843 13.4154 13.8435 13.3844 13.8418ZM13.5538 14.0256C11.6911 15.3816 9.76407 16.7881 7.89507 18.1392C8.18944 18.2316 8.8306 18.2749 9.1232 17.8979C9.7457 17.4683 10.4455 17.1525 11.0701 16.7171C11.9745 16.1302 12.9429 15.4888 13.4565 14.5025C13.481 14.3702 13.6628 14.1323 13.5538 14.0256ZM10.0089 14.1116C10.0953 14.4765 11.1759 14.8953 11.0587 14.8151C10.6602 14.6754 10.265 14.4578 10.0089 14.1116Z" fill="#DC9624"/>
</g>
<defs>
<linearGradient id="paint0_linear_244_272" x1="0" y1="24" x2="24" y2="0" gradientUnits="userSpaceOnUse">
<stop stop-color="#DB7093"/>
<stop offset="1" stop-color="#F3B661"/>
</linearGradient>
<clipPath id="clip0_244_272">
<rect width="24" height="24" fill="white"/>
</clipPath>
</defs>
</svg>
