<svg width="18" height="18" viewBox="0 0 18 18" fill="none" xmlns="http://www.w3.org/2000/svg">
<path d="M0 2.25C0 2.84674 0.237053 3.41903 0.65901 3.84099C1.08097 4.26295 1.65326 4.5 2.25 4.5C2.84674 4.5 3.41903 4.26295 3.84099 3.84099C4.26295 3.41903 4.5 2.84674 4.5 2.25C4.5 1.65326 4.26295 1.08097 3.84099 0.65901C3.41903 0.237053 2.84674 0 2.25 0C1.65326 0 1.08097 0.237053 0.65901 0.65901C0.237053 1.08097 0 1.65326 0 2.25ZM6.75 15.75C6.75 16.3467 6.98705 16.919 7.40901 17.341C7.83097 17.7629 8.40326 18 9 18C9.59674 18 10.169 17.7629 10.591 17.341C11.0129 16.919 11.25 16.3467 11.25 15.75C11.25 15.1533 11.0129 14.581 10.591 14.159C10.169 13.7371 9.59674 13.5 9 13.5C8.40326 13.5 7.83097 13.7371 7.40901 14.159C6.98705 14.581 6.75 15.1533 6.75 15.75ZM6.75 9C6.75 9.59674 6.98705 10.169 7.40901 10.591C7.83097 11.0129 8.40326 11.25 9 11.25C9.59674 11.25 10.169 11.0129 10.591 10.591C11.0129 10.169 11.25 9.59674 11.25 9C11.25 8.40326 11.0129 7.83097 10.591 7.40901C10.169 6.98705 9.59674 6.75 9 6.75C8.40326 6.75 7.83097 6.98705 7.40901 7.40901C6.98705 7.83097 6.75 8.40326 6.75 9ZM6.75 2.25C6.75 2.84674 6.98705 3.41903 7.40901 3.84099C7.83097 4.26295 8.40326 4.5 9 4.5C9.59674 4.5 10.169 4.26295 10.591 3.84099C11.0129 3.41903 11.25 2.84674 11.25 2.25C11.25 1.65326 11.0129 1.08097 10.591 0.65901C10.169 0.237053 9.59674 0 9 0C8.40326 0 7.83097 0.237053 7.40901 0.65901C6.98705 1.08097 6.75 1.65326 6.75 2.25ZM13.5 2.25C13.5 2.84674 13.7371 3.41903 14.159 3.84099C14.581 4.26295 15.1533 4.5 15.75 4.5C16.3467 4.5 16.919 4.26295 17.341 3.84099C17.7629 3.41903 18 2.84674 18 2.25C18 1.65326 17.7629 1.08097 17.341 0.65901C16.919 0.237053 16.3467 0 15.75 0C15.1533 0 14.581 0.237053 14.159 0.65901C13.7371 1.08097 13.5 1.65326 13.5 2.25Z" fill="#F8F8F8"/>
</svg>
