<svg width="24" height="24" viewBox="0 0 24 24" fill="none" xmlns="http://www.w3.org/2000/svg">
<g clip-path="url(#clip0_244_238)">
<path d="M4.25049 8.8125H22.9386V22.6256H4.25049V8.8125Z" fill="white"/>
<path d="M0.28125 11.9831V23.7019H23.7188V0.264374H0.28125V11.9831ZM19.1681 11.0456C19.7295 11.1759 20.2397 11.4695 20.6344 11.8894C20.8517 12.1156 21.0406 12.3674 21.1969 12.6394C21.1969 12.6694 20.1844 13.3537 19.5675 13.7362C19.545 13.7512 19.455 13.6537 19.3556 13.5056C19.243 13.3113 19.083 13.1487 18.8905 13.033C18.6981 12.9172 18.4794 12.8521 18.255 12.8437C17.5444 12.795 17.0869 13.1681 17.0906 13.7812C17.0847 13.9339 17.1197 14.0854 17.1919 14.22C17.3475 14.5444 17.6381 14.7375 18.5494 15.1312C20.2275 15.8531 20.9456 16.3294 21.3919 17.0062C21.8906 17.7562 22.0012 18.9675 21.6637 19.8637C21.2887 20.8387 20.37 21.5006 19.0706 21.72C18.4772 21.788 17.8775 21.7817 17.2856 21.7012C16.3784 21.5517 15.5428 21.1161 14.9006 20.4581C14.685 20.22 14.265 19.5994 14.2913 19.5544C14.3597 19.5036 14.4318 19.4578 14.5069 19.4175L15.375 18.9375L16.0481 18.5475L16.1887 18.7556C16.4261 19.0951 16.7281 19.3844 17.0775 19.6069C17.8275 20.0006 18.8512 19.9462 19.3575 19.4906C19.5275 19.3237 19.6335 19.1024 19.6572 18.8653C19.6808 18.6282 19.6205 18.3904 19.4869 18.1931C19.2994 17.9325 18.9244 17.7131 17.8762 17.2556C16.6669 16.7344 16.1456 16.4119 15.6694 15.8981C15.3721 15.5591 15.1526 15.1591 15.0262 14.7262C14.932 14.2317 14.9181 13.7252 14.985 13.2262C15.2344 12.0581 16.11 11.2425 17.3888 11.0006C17.981 10.9273 18.5808 10.9438 19.1681 11.0494V11.0456ZM13.6669 12.0281V12.9881H10.6237V21.6562H8.46563V12.9862H5.415V12.0487C5.4055 11.7255 5.41301 11.4019 5.4375 11.0794C5.4525 11.0625 7.3125 11.0625 9.5625 11.0625H13.6556L13.6669 12.0281Z" fill="#007ACC"/>
</g>
<defs>
<clipPath id="clip0_244_238">
<rect width="24" height="24" fill="white"/>
</clipPath>
</defs>
</svg>
